<svg width="726" height="726" viewBox="0 0 726 726" fill="none" xmlns="http://www.w3.org/2000/svg">
<path d="M359.37 0.05445V98.9175C360.586 99.2986 361.784 99.698 363 100.097V0C361.784 0 360.586 0.0363 359.37 0.05445Z" fill="#AB7D63"/>
<path d="M350.059 96.2316C351.275 96.5583 352.509 96.885 353.725 97.248L350.331 0.254395C349.115 0.290695 347.917 0.345145 346.701 0.399595L350.059 96.2316Z" fill="#AB7D63"/>
<path d="M340.549 93.7995C341.783 94.0899 343.017 94.3984 344.251 94.707L337.699 0.889648C336.483 0.980398 335.285 1.053 334.069 1.14375L340.549 93.7995Z" fill="#AB7D63"/>
<path d="M330.856 91.7485C332.108 91.9845 333.342 92.2386 334.577 92.4927L325.066 1.96045C323.868 2.0875 322.67 2.2327 321.454 2.3779L330.856 91.7485Z" fill="#AB7D63"/>
<path d="M320.983 89.9877C322.235 90.1873 323.488 90.387 324.74 90.6048L312.507 3.50293C311.309 3.66628 310.111 3.82963 308.913 4.01113L320.983 89.9877Z" fill="#AB7D63"/>
<path d="M310.964 88.5899C312.216 88.7351 313.487 88.8984 314.739 89.0799L300.001 5.46289C298.803 5.66254 297.624 5.89849 296.426 6.11629L310.964 88.5899Z" fill="#AB7D63"/>
<path d="M300.781 87.5555C302.052 87.6644 303.304 87.7733 304.557 87.9003L287.55 7.87695C286.37 8.13105 285.19 8.38515 284.011 8.6574L300.781 87.5555Z" fill="#AB7D63"/>
<path d="M290.472 86.9022C291.743 86.9566 292.995 87.0293 294.266 87.1019L275.226 10.7085C274.046 10.9989 272.867 11.2893 271.705 11.5797L290.472 86.9022Z" fill="#AB7D63"/>
<path d="M280.055 86.612C281.325 86.6301 282.577 86.6301 283.848 86.6664L262.994 13.9575C261.832 14.2842 260.67 14.6472 259.509 14.9921L280.055 86.612Z" fill="#AB7D63"/>
<path d="M269.509 86.7208C270.761 86.6845 272.032 86.6664 273.302 86.6482L250.887 17.6782C249.744 18.0594 248.582 18.4224 247.438 18.8035L269.509 86.7208Z" fill="#AB7D63"/>
<path d="M258.874 87.2293C260.126 87.1385 261.378 87.0659 262.649 86.9933L238.909 21.7622C237.765 22.1797 236.64 22.6153 235.515 23.0327L258.874 87.2293Z" fill="#AB7D63"/>
<path d="M248.183 88.1544C249.435 88.0274 250.688 87.9003 251.958 87.7914L227.111 26.3174C225.985 26.7711 224.86 27.2249 223.753 27.6968L248.183 88.1544Z" fill="#AB7D63"/>
<path d="M237.439 89.5159C238.691 89.3344 239.925 89.1529 241.178 88.9896L215.477 31.2544C214.37 31.7444 213.263 32.2345 212.174 32.7427L237.439 89.5159Z" fill="#AB7D63"/>
<path d="M226.657 91.3126C227.891 91.0766 229.125 90.8588 230.359 90.641L204.006 36.5903C202.917 37.1167 201.846 37.6612 200.757 38.2057L226.657 91.3126Z" fill="#AB7D63"/>
<path d="M215.859 93.5449C217.075 93.2726 218.309 93.0004 219.543 92.7463L192.754 42.3438C191.683 42.9064 190.612 43.4691 189.541 44.0499L215.859 93.5449Z" fill="#AB7D63"/>
<path d="M205.077 96.2494C206.293 95.9227 207.491 95.5778 208.707 95.2693L181.681 48.4604C180.629 49.0594 179.594 49.6946 178.56 50.3117L205.077 96.2494Z" fill="#AB7D63"/>
<path d="M194.332 99.4072C195.53 99.0261 196.728 98.6631 197.925 98.3001L170.864 54.9941C169.829 55.6294 168.813 56.2646 167.778 56.918L194.332 99.4072Z" fill="#AB7D63"/>
<path d="M183.642 103.019C184.822 102.602 186.002 102.184 187.181 101.767L160.247 61.8369C159.248 62.5085 158.25 63.2163 157.252 63.906L183.642 103.019Z" fill="#AB7D63"/>
<path d="M173.042 107.139C174.185 106.668 175.347 106.178 176.509 105.724L149.919 69.1152C148.939 69.8231 147.959 70.5309 146.979 71.2569L173.042 107.139Z" fill="#AB7D63"/>
<path d="M162.533 111.695C163.659 111.169 164.802 110.66 165.945 110.152L139.81 76.7017C138.848 77.4458 137.904 78.2081 136.96 78.9523L162.533 111.695Z" fill="#AB7D63"/>
<path d="M152.17 116.723C153.277 116.16 154.402 115.616 155.509 115.053L130.008 84.6699C129.083 85.4504 128.157 86.2308 127.231 87.0113L152.17 116.723Z" fill="#AB7D63"/>
<path d="M141.951 122.24C143.022 121.623 144.111 121.024 145.2 120.425L120.462 92.9463C119.554 93.763 118.665 94.5616 117.775 95.3784L141.951 122.24Z" fill="#AB7D63"/>
<path d="M131.933 128.212C132.985 127.558 134.038 126.905 135.091 126.252L111.223 101.531C110.352 102.366 109.481 103.219 108.628 104.072L131.933 128.212Z" fill="#AB7D63"/>
<path d="M122.095 134.637C123.111 133.929 124.146 133.239 125.18 132.568L102.275 110.461C101.44 111.332 100.587 112.185 99.752 113.075L122.095 134.637Z" fill="#AB7D63"/>
<path d="M112.476 141.498C113.456 140.753 114.472 140.027 115.47 139.301L93.6542 119.663C92.8374 120.552 92.0388 121.478 91.2402 122.386L112.476 141.498Z" fill="#AB7D63"/>
<path d="M103.129 148.83C104.091 148.049 105.053 147.287 106.015 146.507L85.3599 129.173C84.5794 130.099 83.7809 131.006 83.0186 131.95L103.129 148.83Z" fill="#AB7D63"/>
<path d="M94.0529 156.598C94.9786 155.782 95.8861 154.965 96.8117 154.148L77.3549 138.957C76.6108 139.9 75.8848 140.88 75.1406 141.842L94.0529 156.598Z" fill="#AB7D63"/>
<path d="M85.2869 164.784C86.1581 163.931 87.0474 163.06 87.9368 162.225L69.7687 149.03C69.0608 150.01 68.3348 150.972 67.627 151.97L85.2869 164.784Z" fill="#AB7D63"/>
<path d="M76.8287 173.387C77.6636 172.497 78.5167 171.608 79.3697 170.719L62.4902 159.32C61.8187 160.319 61.1471 161.335 60.4756 162.333L76.8287 173.387Z" fill="#AB7D63"/>
<path d="M68.7163 182.389C69.5149 181.464 70.3316 180.538 71.1484 179.631L55.5938 169.92C54.9404 170.937 54.3052 171.971 53.6699 173.006L68.7163 182.389Z" fill="#AB7D63"/>
<path d="M60.9837 191.773C61.746 190.811 62.5264 189.867 63.2887 188.905L49.0591 180.683C48.442 181.736 47.8431 182.77 47.2441 183.823L60.9837 191.773Z" fill="#AB7D63"/>
<path d="M53.6329 201.537C54.3408 200.539 55.0668 199.559 55.7928 198.579L42.8881 191.718C42.3255 192.789 41.7628 193.86 41.2002 194.931L53.6329 201.537Z" fill="#AB7D63"/>
<path d="M46.7185 211.647C47.39 210.631 48.0434 209.596 48.7331 208.598L37.1353 202.953C36.6089 204.042 36.0644 205.113 35.5381 206.202L46.7185 211.647Z" fill="#AB7D63"/>
<path d="M40.22 222.083C40.8371 221.03 41.4542 219.978 42.0895 218.943L31.744 214.333C31.2539 215.44 30.782 216.547 30.292 217.654L40.22 222.083Z" fill="#AB7D63"/>
<path d="M34.176 232.828C34.7568 231.757 35.3195 230.686 35.9184 229.616L26.8071 225.931C26.3534 227.056 25.8815 228.164 25.4277 229.289L34.176 232.828Z" fill="#AB7D63"/>
<path d="M28.6039 243.881C29.1302 242.774 29.6566 241.685 30.2011 240.596L22.2151 237.692C21.7976 238.818 21.3983 239.979 20.999 241.105L28.6039 243.881Z" fill="#AB7D63"/>
<path d="M23.5043 255.189C23.9762 254.063 24.4662 252.956 24.9563 251.849L18.0774 249.617C17.6963 250.76 17.3151 251.922 16.9521 253.065L23.5043 255.189Z" fill="#AB7D63"/>
<path d="M18.9486 266.751C19.366 265.607 19.8016 264.482 20.2372 263.338L14.3566 261.65C14.0118 262.812 13.6851 263.974 13.3584 265.135L18.9486 266.751Z" fill="#AB7D63"/>
<path d="M14.901 278.53C15.264 277.368 15.6452 276.225 16.0263 275.063L11.0532 273.829C10.7628 275.009 10.4724 276.189 10.2002 277.35L14.901 278.53Z" fill="#AB7D63"/>
<path d="M11.3983 290.509C11.7068 289.329 12.0154 288.168 12.3421 287.006L8.18572 286.117C7.93162 287.296 7.65937 288.476 7.40527 289.656L11.3983 290.509Z" fill="#AB7D63"/>
<path d="M8.44002 302.633C8.69412 301.454 8.96637 300.274 9.23862 299.094L5.73567 298.477C5.51787 299.657 5.33637 300.855 5.13672 302.053L8.44002 302.633Z" fill="#AB7D63"/>
<path d="M6.00742 314.921C6.20707 313.723 6.42487 312.543 6.66082 311.345L3.73867 310.928C3.57532 312.126 3.39382 313.324 3.23047 314.521L6.00742 314.921Z" fill="#AB7D63"/>
<path d="M4.13782 327.299C4.28302 326.101 4.46452 324.903 4.64602 323.705L2.15947 323.451C2.03242 324.649 1.88722 325.847 1.77832 327.063L4.13782 327.299Z" fill="#AB7D63"/>
<path d="M2.86752 339.768C2.95827 338.552 3.06717 337.354 3.19422 336.156L1.01622 336.011C0.925473 337.209 0.871023 338.425 0.780273 339.641L2.86752 339.768Z" fill="#AB7D63"/>
<path d="M2.14144 352.273C2.17774 351.057 2.21404 349.859 2.28664 348.643L0.308286 348.571C0.253836 349.787 0.199386 350.985 0.163086 352.201L2.14144 352.273Z" fill="#AB7D63"/>
<path d="M1.94205 362.256C1.94205 361.893 1.9602 361.548 1.9602 361.185H0.01815C0.01815 361.784 0 362.401 0 363C0 363.599 0.01815 364.216 0.01815 364.815H1.97835C1.97835 363.962 1.94205 363.109 1.94205 362.256Z" fill="#AB7D63"/>
<path d="M2.35924 377.338C2.28664 376.141 2.25034 374.925 2.19589 373.708L0.163086 373.781C0.199386 374.997 0.253836 376.195 0.308286 377.411L2.35924 377.338Z" fill="#AB7D63"/>
<path d="M3.32185 389.844C3.1948 388.646 3.10404 387.43 2.99515 386.232L0.762695 386.395C0.835295 387.611 0.907895 388.809 0.998645 390.025L3.32185 389.844Z" fill="#AB7D63"/>
<path d="M4.84624 402.277C4.66474 401.079 4.50139 399.881 4.33804 398.683L1.76074 398.955C1.88779 400.153 2.01484 401.369 2.14189 402.567L4.84624 402.277Z" fill="#AB7D63"/>
<path d="M6.93364 414.619C6.69769 413.421 6.46174 412.241 6.24394 411.043L3.21289 411.461C3.37624 412.659 3.53959 413.857 3.72109 415.055L6.93364 414.619Z" fill="#AB7D63"/>
<path d="M9.58307 426.834C9.29267 425.654 9.02042 424.474 8.74817 423.294L5.11816 423.93C5.31781 425.128 5.49931 426.326 5.71711 427.505L9.58307 426.834Z" fill="#AB7D63"/>
<path d="M12.7595 438.921C12.4147 437.76 12.1061 436.58 11.7794 435.418L7.40527 436.344C7.64122 437.524 7.91347 438.704 8.18572 439.902L12.7595 438.921Z" fill="#AB7D63"/>
<path d="M16.4797 450.81C16.0985 449.666 15.7174 448.505 15.3544 447.343L10.1816 448.632C10.472 449.812 10.7443 450.991 11.0347 452.153L16.4797 450.81Z" fill="#AB7D63"/>
<path d="M20.7454 462.498C20.3098 461.373 19.8742 460.229 19.4568 459.086L13.3584 460.828C13.6851 461.99 14.0118 463.152 14.3566 464.313L20.7454 462.498Z" fill="#AB7D63"/>
<path d="M25.5371 473.969C25.047 472.862 24.557 471.755 24.0669 470.629L16.9521 472.934C17.3151 474.096 17.6963 475.24 18.0774 476.383L25.5371 473.969Z" fill="#AB7D63"/>
<path d="M30.8187 485.167C30.2742 484.078 29.7297 482.989 29.1852 481.9L20.9814 484.877C21.3807 486.02 21.78 487.164 22.1975 488.289L30.8187 485.167Z" fill="#AB7D63"/>
<path d="M36.59 496.094C35.991 495.023 35.4102 493.97 34.8294 492.899L25.4277 496.693C25.8815 497.818 26.3352 498.925 26.8071 500.051L36.59 496.094Z" fill="#AB7D63"/>
<path d="M42.8155 506.73C42.1802 505.696 41.545 504.643 40.9097 503.608L30.292 508.345C30.782 509.453 31.2539 510.56 31.744 511.667L42.8155 506.73Z" fill="#AB7D63"/>
<path d="M49.4954 517.039C48.8057 516.023 48.1342 515.006 47.4626 513.99L35.5381 519.798C36.0644 520.887 36.6089 521.976 37.1353 523.047L49.4954 517.039Z" fill="#AB7D63"/>
<path d="M56.5918 527.022C55.8658 526.042 55.158 525.044 54.432 524.063L41.2188 531.088C41.7814 532.158 42.3441 533.229 42.9067 534.3L56.5918 527.022Z" fill="#AB7D63"/>
<path d="M64.1055 536.623C63.325 535.679 62.5627 534.717 61.8004 533.755L47.2441 542.159C47.8431 543.212 48.442 544.264 49.0591 545.299L64.1055 536.623Z" fill="#AB7D63"/>
<path d="M72.0014 545.843C71.1847 544.936 70.3679 544.01 69.5512 543.084L53.6699 553.013C54.3052 554.047 54.9404 555.063 55.5938 556.098L72.0014 545.843Z" fill="#AB7D63"/>
<path d="M80.2409 554.682C79.3879 553.793 78.5167 552.922 77.6818 552.032L60.4756 563.648C61.1471 564.665 61.8005 565.663 62.4902 566.661L80.2409 554.682Z" fill="#AB7D63"/>
<path d="M88.8262 563.122C87.9368 562.287 87.0475 561.434 86.1581 560.581L67.627 574.048C68.3348 575.028 69.0427 576.009 69.7687 576.989L88.8262 563.122Z" fill="#AB7D63"/>
<path d="M97.7378 571.144C96.8121 570.345 95.8865 569.529 94.9608 568.712L75.1592 584.176C75.9033 585.138 76.6112 586.1 77.3735 587.061L97.7378 571.144Z" fill="#AB7D63"/>
<path d="M106.922 578.713C105.96 577.951 104.998 577.17 104.036 576.39L83 594.031C83.7623 594.957 84.5609 595.883 85.3414 596.808L106.922 578.713Z" fill="#AB7D63"/>
<path d="M116.378 585.864C115.379 585.138 114.381 584.412 113.383 583.686L91.2217 603.632C92.0203 604.54 92.8189 605.447 93.6356 606.355L116.378 585.864Z" fill="#AB7D63"/>
<path d="M126.088 592.561C125.053 591.872 124.019 591.2 122.984 590.51L99.752 612.944C100.587 613.815 101.44 614.686 102.275 615.557L126.088 592.561Z" fill="#AB7D63"/>
<path d="M135.998 598.805C134.927 598.17 133.874 597.516 132.821 596.863L108.609 621.928C109.481 622.781 110.334 623.616 111.205 624.469L135.998 598.805Z" fill="#AB7D63"/>
<path d="M146.108 604.594C145.019 603.995 143.948 603.378 142.859 602.779L117.775 630.64C118.665 631.456 119.572 632.273 120.462 633.072L146.108 604.594Z" fill="#AB7D63"/>
<path d="M156.398 609.894C155.273 609.35 154.166 608.805 153.059 608.225L127.231 638.989C128.157 639.769 129.083 640.55 130.008 641.33L156.398 609.894Z" fill="#AB7D63"/>
<path d="M166.817 614.722C165.674 614.214 164.53 613.724 163.405 613.198L136.979 647.029C137.922 647.792 138.866 648.536 139.828 649.28L166.817 614.722Z" fill="#AB7D63"/>
<path d="M177.343 619.114C176.182 618.661 175.02 618.189 173.877 617.717L146.979 654.743C147.959 655.469 148.939 656.177 149.919 656.885L177.343 619.114Z" fill="#AB7D63"/>
<path d="M187.997 623.017C186.818 622.618 185.638 622.2 184.458 621.765L157.27 662.076C158.268 662.765 159.248 663.455 160.264 664.145L187.997 623.017Z" fill="#AB7D63"/>
<path d="M198.706 626.447C197.508 626.084 196.292 625.739 195.112 625.358L167.778 669.081C168.795 669.735 169.829 670.37 170.864 671.005L198.706 626.447Z" fill="#AB7D63"/>
<path d="M209.469 629.424C208.253 629.115 207.037 628.789 205.839 628.462L178.578 675.688C179.613 676.305 180.647 676.922 181.7 677.539L209.469 629.424Z" fill="#AB7D63"/>
<path d="M220.251 631.928C219.017 631.674 217.782 631.402 216.566 631.13L189.541 681.95C190.612 682.531 191.683 683.093 192.754 683.656L220.251 631.928Z" fill="#AB7D63"/>
<path d="M231.031 633.98C229.797 633.762 228.544 633.544 227.31 633.326L200.757 687.776C201.846 688.321 202.917 688.865 204.006 689.392L231.031 633.98Z" fill="#AB7D63"/>
<path d="M241.794 635.613C240.542 635.45 239.308 635.268 238.055 635.087L212.155 693.258C213.262 693.766 214.351 694.256 215.459 694.746L241.794 635.613Z" fill="#AB7D63"/>
<path d="M252.521 636.775C251.269 636.666 249.998 636.557 248.746 636.43L223.735 698.321C224.861 698.793 225.968 699.247 227.093 699.701L252.521 636.775Z" fill="#AB7D63"/>
<path d="M263.193 637.555C261.922 637.483 260.67 637.392 259.418 637.319L235.532 702.968C236.658 703.385 237.801 703.821 238.926 704.238L263.193 637.555Z" fill="#AB7D63"/>
<path d="M273.774 637.882C272.504 637.863 271.233 637.863 269.981 637.827L247.438 707.215C248.582 707.596 249.744 707.959 250.887 708.34L273.774 637.882Z" fill="#AB7D63"/>
<path d="M284.265 637.846C283.013 637.882 281.743 637.882 280.472 637.9L259.509 711.026C260.67 711.371 261.814 711.734 262.994 712.061L284.265 637.846Z" fill="#AB7D63"/>
<path d="M294.647 637.392C293.376 637.464 292.124 637.555 290.853 637.609L271.705 714.42C272.867 714.729 274.046 715.001 275.226 715.292L294.647 637.392Z" fill="#AB7D63"/>
<path d="M304.883 636.575C303.631 636.702 302.36 636.811 301.108 636.92L284.011 717.361C285.19 717.615 286.37 717.887 287.55 718.141L304.883 636.575Z" fill="#AB7D63"/>
<path d="M314.993 635.395C313.741 635.558 312.488 635.74 311.218 635.885L296.407 719.883C297.605 720.101 298.785 720.319 299.983 720.537L314.993 635.395Z" fill="#AB7D63"/>
<path d="M324.957 633.853C323.705 634.07 322.453 634.27 321.2 634.47L308.895 721.971C310.092 722.152 311.29 722.316 312.488 722.479L324.957 633.853Z" fill="#AB7D63"/>
<path d="M334.74 631.983C333.506 632.237 332.254 632.492 331.02 632.746L321.473 723.623C322.671 723.768 323.868 723.913 325.085 724.04L334.74 631.983Z" fill="#AB7D63"/>
<path d="M344.36 629.769C343.126 630.077 341.892 630.386 340.658 630.676L334.069 724.856C335.267 724.947 336.483 725.02 337.699 725.111L344.36 629.769Z" fill="#AB7D63"/>
<path d="M353.78 627.264C352.564 627.609 351.33 627.936 350.114 628.281L346.72 725.637C347.918 725.691 349.134 725.728 350.35 725.782L353.78 627.264Z" fill="#AB7D63"/>
<path d="M363 726V624.414C361.784 624.813 360.586 625.213 359.37 625.594V725.945C360.586 725.963 361.784 726 363 726Z" fill="#AB7D63"/>
<path d="M372.02 621.329C370.823 621.765 369.625 622.182 368.427 622.6L372.039 725.891C373.255 725.855 374.453 725.801 375.669 725.764L372.02 621.329Z" fill="#AB7D63"/>
<path d="M380.823 617.935C379.644 618.407 378.464 618.879 377.284 619.351L384.689 725.347C385.905 725.274 387.103 725.202 388.319 725.111L380.823 617.935Z" fill="#AB7D63"/>
<path d="M389.426 614.287C388.265 614.795 387.103 615.322 385.941 615.812L397.358 724.367C398.556 724.258 399.772 724.149 400.97 724.022L389.426 614.287Z" fill="#AB7D63"/>
<path d="M397.794 610.403C396.65 610.947 395.507 611.492 394.363 612.036L409.954 722.987C411.152 722.824 412.35 722.643 413.548 722.479L397.794 610.403Z" fill="#AB7D63"/>
<path d="M405.925 606.283C404.799 606.882 403.674 607.462 402.549 608.043L422.496 721.118C423.694 720.918 424.891 720.737 426.071 720.519L405.925 606.283Z" fill="#AB7D63"/>
<path d="M413.838 601.963C412.731 602.598 411.624 603.197 410.517 603.814L434.965 718.849C436.144 718.613 437.342 718.359 438.522 718.105L413.838 601.963Z" fill="#AB7D63"/>
<path d="M421.497 597.425C420.426 598.079 419.337 598.732 418.248 599.385L447.361 716.126C448.54 715.854 449.72 715.564 450.882 715.273L421.497 597.425Z" fill="#AB7D63"/>
<path d="M428.939 592.688C427.886 593.378 426.834 594.086 425.763 594.757L459.649 712.95C460.81 712.623 461.99 712.315 463.152 711.988L428.939 592.688Z" fill="#AB7D63"/>
<path d="M436.126 587.806C435.091 588.532 434.057 589.258 433.004 589.966L471.809 709.393C472.97 709.03 474.114 708.648 475.257 708.267L436.126 587.806Z" fill="#AB7D63"/>
<path d="M443.096 582.742C442.08 583.504 441.063 584.248 440.047 584.992L483.861 705.381C485.004 704.982 486.148 704.583 487.291 704.183L443.096 582.742Z" fill="#AB7D63"/>
<path d="M449.812 577.515C448.832 578.295 447.834 579.094 446.854 579.856L495.768 700.935C496.893 700.499 498 700.027 499.125 699.573L449.812 577.515Z" fill="#AB7D63"/>
<path d="M456.291 572.161C455.329 572.977 454.367 573.794 453.405 574.593L507.492 696.071C508.599 695.581 509.707 695.109 510.814 694.619L456.291 572.161Z" fill="#AB7D63"/>
<path d="M462.553 566.68C461.627 567.515 460.683 568.349 459.739 569.184L519.072 690.826C520.161 690.299 521.25 689.773 522.339 689.247L462.553 566.68Z" fill="#AB7D63"/>
<path d="M468.56 561.071C467.653 561.942 466.745 562.795 465.819 563.648L530.415 685.144C531.486 684.582 532.557 684.019 533.628 683.456L468.56 561.071Z" fill="#AB7D63"/>
<path d="M474.332 555.354C473.461 556.243 472.572 557.15 471.683 558.022L541.578 679.082C542.631 678.483 543.684 677.884 544.736 677.285L474.332 555.354Z" fill="#AB7D63"/>
<path d="M479.886 549.527C479.033 550.453 478.18 551.379 477.327 552.286L552.541 672.639C553.575 672.004 554.592 671.368 555.626 670.715L479.886 549.527Z" fill="#AB7D63"/>
<path d="M485.204 543.629C484.388 544.573 483.553 545.498 482.718 546.424L563.231 665.797C564.248 665.125 565.264 664.472 566.262 663.8L485.204 543.629Z" fill="#AB7D63"/>
<path d="M490.305 537.64C489.506 538.602 488.689 539.545 487.891 540.489L573.704 658.609C574.684 657.902 575.664 657.176 576.644 656.468L490.305 537.64Z" fill="#AB7D63"/>
<path d="M495.168 531.559C494.406 532.539 493.625 533.519 492.845 534.481L583.903 651.041C584.865 650.296 585.827 649.57 586.789 648.826L495.168 531.559Z" fill="#AB7D63"/>
<path d="M499.833 525.406C499.089 526.405 498.363 527.403 497.601 528.401L593.868 643.145C594.794 642.383 595.72 641.584 596.645 640.804L499.833 525.406Z" fill="#AB7D63"/>
<path d="M504.262 519.181C503.554 520.197 502.846 521.232 502.12 522.23L603.506 634.833C604.413 634.034 605.321 633.235 606.228 632.419L504.262 519.181Z" fill="#AB7D63"/>
<path d="M508.49 512.919C507.819 513.953 507.129 515.006 506.439 516.023L612.907 626.266C613.779 625.431 614.65 624.578 615.521 623.743L508.49 512.919Z" fill="#AB7D63"/>
<path d="M512.501 506.603C511.848 507.656 511.194 508.708 510.541 509.743L621.964 617.336C622.817 616.465 623.652 615.612 624.505 614.741L512.501 506.603Z" fill="#AB7D63"/>
<path d="M516.313 500.232C515.696 501.303 515.061 502.355 514.426 503.426L630.713 608.134C631.53 607.244 632.346 606.337 633.145 605.447L516.313 500.232Z" fill="#AB7D63"/>
<path d="M519.925 493.825C519.344 494.914 518.727 495.985 518.128 497.056L639.152 598.605C639.933 597.68 640.713 596.754 641.493 595.828L519.925 493.825Z" fill="#AB7D63"/>
<path d="M523.319 487.364C522.757 488.453 522.176 489.542 521.613 490.631L647.229 588.786C647.992 587.842 648.736 586.898 649.48 585.936L523.319 487.364Z" fill="#AB7D63"/>
<path d="M526.514 480.884C525.987 481.991 525.443 483.099 524.898 484.188L654.979 578.695C655.705 577.714 656.413 576.734 657.121 575.754L526.514 480.884Z" fill="#AB7D63"/>
<path d="M529.527 474.35C529.018 475.475 528.51 476.583 528.002 477.708L662.366 568.331C663.056 567.333 663.746 566.334 664.417 565.336L529.527 474.35Z" fill="#AB7D63"/>
<path d="M532.339 467.798C531.867 468.924 531.395 470.067 530.905 471.192L669.39 557.732C670.043 556.715 670.678 555.681 671.314 554.646L532.339 467.798Z" fill="#AB7D63"/>
<path d="M534.971 461.228C534.535 462.371 534.082 463.515 533.628 464.64L676.033 546.86C676.65 545.825 677.285 544.791 677.884 543.738L534.971 461.228Z" fill="#AB7D63"/>
<path d="M537.403 454.64C536.985 455.783 536.586 456.945 536.15 458.088L682.294 535.806C682.875 534.736 683.42 533.665 683.982 532.594L537.403 454.64Z" fill="#AB7D63"/>
<path d="M539.654 448.033C539.273 449.194 538.892 450.356 538.511 451.518L688.157 524.499C688.702 523.41 689.246 522.339 689.773 521.25L539.654 448.033Z" fill="#AB7D63"/>
<path d="M541.741 441.408C541.396 442.57 541.051 443.75 540.688 444.911L693.657 513.01C694.165 511.903 694.637 510.796 695.127 509.689L541.741 441.408Z" fill="#AB7D63"/>
<path d="M543.629 434.747C543.302 435.926 542.994 437.106 542.667 438.268L698.702 501.303C699.156 500.177 699.628 499.07 700.082 497.945L543.629 434.747Z" fill="#AB7D63"/>
<path d="M545.353 428.104C545.062 429.284 544.772 430.464 544.481 431.643L703.348 489.469C703.766 488.344 704.183 487.2 704.601 486.057L545.353 428.104Z" fill="#AB7D63"/>
<path d="M546.896 421.425C546.642 422.605 546.387 423.802 546.115 424.982L707.578 477.436C707.959 476.292 708.322 475.131 708.703 473.987L546.896 421.425Z" fill="#AB7D63"/>
<path d="M548.276 414.764C548.04 415.962 547.822 417.159 547.586 418.339L711.372 465.311C711.716 464.15 712.061 462.988 712.388 461.827L548.276 414.764Z" fill="#AB7D63"/>
<path d="M549.473 408.066C549.273 409.264 549.073 410.462 548.855 411.66L714.728 453.024C715.019 451.844 715.309 450.664 715.581 449.503L549.473 408.066Z" fill="#AB7D63"/>
<path d="M550.508 401.387C550.344 402.585 550.163 403.783 549.981 404.981L717.651 440.627C717.905 439.448 718.177 438.268 718.432 437.088L550.508 401.387Z" fill="#AB7D63"/>
<path d="M551.379 394.69C551.234 395.888 551.107 397.104 550.943 398.302L720.174 428.14C720.392 426.961 720.591 425.763 720.791 424.565L551.379 394.69Z" fill="#AB7D63"/>
<path d="M552.087 387.993C551.978 389.209 551.869 390.407 551.742 391.605L722.207 415.563C722.389 414.365 722.552 413.167 722.715 411.969L552.087 387.993Z" fill="#AB7D63"/>
<path d="M552.613 381.295C552.522 382.511 552.45 383.709 552.341 384.907L723.786 402.93C723.913 401.732 724.058 400.534 724.185 399.318L552.613 381.295Z" fill="#AB7D63"/>
<path d="M552.994 374.598C552.94 375.814 552.885 377.012 552.812 378.228L724.984 390.262C725.074 389.064 725.129 387.848 725.219 386.632L552.994 374.598Z" fill="#AB7D63"/>
<path d="M553.212 367.882C553.194 369.098 553.158 370.296 553.104 371.512L725.674 377.538C725.728 376.322 725.782 375.124 725.819 373.908L553.212 367.882Z" fill="#AB7D63"/>
<path d="M553.284 362.256C553.284 363.109 553.266 363.962 553.248 364.815H725.963C725.963 364.216 725.982 363.599 725.982 363C725.982 362.401 725.963 361.784 725.963 361.185H553.266C553.266 361.548 553.284 361.893 553.284 362.256Z" fill="#AB7D63"/>
<path d="M725.691 348.462L553.176 354.488C553.212 355.686 553.212 356.902 553.23 358.118L725.818 352.092C725.782 350.876 725.728 349.66 725.691 348.462Z" fill="#AB7D63"/>
<path d="M552.903 347.772C552.958 348.97 552.994 350.186 553.048 351.402L725.201 339.369C725.129 338.153 725.056 336.955 724.965 335.739L552.903 347.772Z" fill="#AB7D63"/>
<path d="M552.486 341.075C552.577 342.273 552.632 343.489 552.722 344.705L724.204 326.682C724.077 325.484 723.95 324.268 723.804 323.07L552.486 341.075Z" fill="#AB7D63"/>
<path d="M551.887 334.359C552.014 335.557 552.105 336.773 552.213 337.971L722.696 314.013C722.533 312.815 722.37 311.617 722.188 310.419L551.887 334.359Z" fill="#AB7D63"/>
<path d="M551.125 327.662C551.27 328.86 551.397 330.076 551.542 331.274L720.773 301.435C720.574 300.237 720.374 299.039 720.156 297.859L551.125 327.662Z" fill="#AB7D63"/>
<path d="M550.199 320.965C550.381 322.163 550.544 323.36 550.707 324.577L718.413 288.93C718.159 287.75 717.905 286.57 717.633 285.391L550.199 320.965Z" fill="#AB7D63"/>
<path d="M549.11 314.267C549.328 315.465 549.51 316.663 549.709 317.861L715.6 276.497C715.31 275.317 715.038 274.138 714.747 272.976L549.11 314.267Z" fill="#AB7D63"/>
<path d="M547.857 307.588C548.093 308.786 548.311 309.966 548.547 311.164L712.387 264.191C712.06 263.03 711.697 261.868 711.371 260.707L547.857 307.588Z" fill="#AB7D63"/>
<path d="M546.424 300.909C546.696 302.088 546.95 303.286 547.204 304.466L708.685 251.994C708.322 250.833 707.941 249.689 707.56 248.546L546.424 300.909Z" fill="#AB7D63"/>
<path d="M544.826 294.23C545.117 295.409 545.407 296.589 545.697 297.769L704.601 239.925C704.183 238.781 703.784 237.656 703.348 236.513L544.826 294.23Z" fill="#AB7D63"/>
<path d="M543.048 287.568C543.375 288.748 543.683 289.928 544.01 291.09L700.082 228.036C699.628 226.911 699.174 225.804 698.702 224.679L543.048 287.568Z" fill="#AB7D63"/>
<path d="M541.088 280.926C541.451 282.087 541.796 283.267 542.122 284.429L695.109 216.312C694.619 215.205 694.147 214.097 693.639 212.99L541.088 280.926Z" fill="#AB7D63"/>
<path d="M538.946 274.283C539.327 275.445 539.709 276.606 540.072 277.768L689.773 204.75C689.246 203.661 688.702 202.59 688.157 201.501L538.946 274.283Z" fill="#AB7D63"/>
<path d="M536.623 267.658C537.04 268.801 537.44 269.963 537.839 271.125L684.001 193.406C683.438 192.336 682.876 191.265 682.313 190.194L536.623 267.658Z" fill="#AB7D63"/>
<path d="M534.118 261.07C534.572 262.213 534.989 263.357 535.425 264.5L677.866 182.262C677.267 181.21 676.632 180.175 676.015 179.141L534.118 261.07Z" fill="#AB7D63"/>
<path d="M531.414 254.481C531.886 255.606 532.358 256.75 532.812 257.875L671.296 171.336C670.661 170.301 670.025 169.285 669.372 168.25L531.414 254.481Z" fill="#AB7D63"/>
<path d="M528.528 247.929C529.037 249.054 529.527 250.18 530.035 251.305L664.417 160.664C663.746 159.665 663.056 158.667 662.366 157.669L528.528 247.929Z" fill="#AB7D63"/>
<path d="M525.442 241.413C525.987 242.52 526.513 243.627 527.04 244.734L657.121 150.227C656.413 149.247 655.705 148.267 654.979 147.287L525.442 241.413Z" fill="#AB7D63"/>
<path d="M522.157 234.933C522.72 236.022 523.283 237.111 523.845 238.219L649.479 140.063C648.735 139.101 647.991 138.158 647.229 137.214L522.157 234.933Z" fill="#AB7D63"/>
<path d="M518.69 228.472C519.289 229.543 519.888 230.632 520.469 231.703L641.475 130.154C640.695 129.228 639.914 128.303 639.134 127.377L518.69 228.472Z" fill="#AB7D63"/>
<path d="M515.006 222.065C515.641 223.136 516.276 224.189 516.893 225.26L633.162 120.57C632.346 119.663 631.547 118.774 630.73 117.884L515.006 222.065Z" fill="#AB7D63"/>
<path d="M511.122 215.695C511.775 216.747 512.447 217.782 513.082 218.835L624.487 111.241C623.652 110.37 622.799 109.499 621.946 108.646L511.122 215.695Z" fill="#AB7D63"/>
<path d="M507.021 209.36C507.71 210.395 508.4 211.43 509.071 212.464L615.521 102.239C614.65 101.404 613.797 100.551 612.908 99.7163L507.021 209.36Z" fill="#AB7D63"/>
<path d="M502.719 203.099C503.445 204.115 504.134 205.131 504.842 206.166L606.228 93.5634C605.339 92.7466 604.413 91.948 603.506 91.1494L502.719 203.099Z" fill="#AB7D63"/>
<path d="M498.199 196.891C498.943 197.89 499.669 198.888 500.414 199.904L596.645 85.2144C595.719 84.4339 594.812 83.6353 593.868 82.873L498.199 196.891Z" fill="#AB7D63"/>
<path d="M493.444 190.756C494.225 191.737 494.987 192.717 495.749 193.697L586.79 77.1738C585.846 76.4296 584.866 75.7036 583.904 74.9595L493.444 190.756Z" fill="#AB7D63"/>
<path d="M488.471 184.712C489.269 185.674 490.086 186.618 490.867 187.58L576.625 69.5323C575.645 68.8245 574.683 68.0985 573.685 67.3906L488.471 184.712Z" fill="#AB7D63"/>
<path d="M483.298 178.723C484.133 179.649 484.968 180.592 485.784 181.536L566.262 62.2182C565.263 61.5466 564.247 60.8751 563.23 60.2217L483.298 178.723Z" fill="#AB7D63"/>
<path d="M477.871 172.824C478.724 173.732 479.577 174.657 480.43 175.583L555.589 55.2847C554.573 54.6495 553.538 53.9961 552.504 53.3608L477.871 172.824Z" fill="#AB7D63"/>
<path d="M472.227 167.016C473.116 167.905 473.987 168.813 474.858 169.702L544.718 48.6963C543.665 48.0973 542.612 47.4984 541.56 46.8994L472.227 167.016Z" fill="#AB7D63"/>
<path d="M466.346 161.353C467.253 162.206 468.179 163.078 469.068 163.949L533.61 42.5434C532.539 41.9808 531.468 41.4 530.397 40.8555L466.346 161.353Z" fill="#AB7D63"/>
<path d="M460.229 155.781C461.173 156.616 462.117 157.433 463.043 158.286L522.303 36.7719C521.214 36.2456 520.125 35.7011 519.036 35.1929L460.229 155.781Z" fill="#AB7D63"/>
<path d="M453.896 150.319C454.857 151.117 455.819 151.934 456.781 152.751L510.814 31.3817C509.707 30.8916 508.6 30.4016 507.492 29.9297L453.896 150.319Z" fill="#AB7D63"/>
<path d="M447.307 145C448.305 145.781 449.285 146.579 450.265 147.36L499.125 26.4081C498 25.9544 496.892 25.4825 495.767 25.0469L447.307 145Z" fill="#AB7D63"/>
<path d="M440.482 139.846C441.499 140.59 442.515 141.334 443.532 142.096L487.291 21.8527C486.148 21.4352 485.004 21.0541 483.861 20.6548L440.482 139.846Z" fill="#AB7D63"/>
<path d="M433.422 134.818C434.456 135.526 435.509 136.252 436.544 136.978L475.294 17.7147C474.15 17.3335 472.989 16.9524 471.845 16.5894L433.422 134.818Z" fill="#AB7D63"/>
<path d="M426.126 129.972C427.197 130.662 428.25 131.37 429.302 132.059L463.152 14.0118C461.99 13.6851 460.829 13.3584 459.649 13.0498L426.126 129.972Z" fill="#AB7D63"/>
<path d="M418.575 125.326C419.664 125.979 420.753 126.633 421.824 127.286L450.882 10.7451C449.702 10.4547 448.541 10.1643 447.361 9.89209L418.575 125.326Z" fill="#AB7D63"/>
<path d="M410.807 120.861C411.914 121.478 413.021 122.095 414.128 122.712L438.54 7.89503C437.36 7.64093 436.18 7.38683 434.982 7.15088L410.807 120.861Z" fill="#AB7D63"/>
<path d="M402.785 116.577C403.91 117.158 405.036 117.757 406.161 118.338L426.072 5.46321C424.874 5.26356 423.694 5.06391 422.496 4.86426L402.785 116.577Z" fill="#AB7D63"/>
<path d="M394.545 112.567C395.688 113.111 396.85 113.637 397.975 114.2L413.53 3.52138C412.332 3.35803 411.134 3.17653 409.936 3.01318L394.545 112.567Z" fill="#AB7D63"/>
<path d="M386.087 108.755C387.249 109.263 388.41 109.771 389.572 110.279L400.952 1.96008C399.754 1.83303 398.538 1.72413 397.34 1.61523L386.087 108.755Z" fill="#AB7D63"/>
<path d="M377.393 105.216C378.572 105.67 379.752 106.142 380.932 106.632L388.319 0.907825C387.121 0.817075 385.905 0.744475 384.689 0.671875L377.393 105.216Z" fill="#AB7D63"/>
<path d="M368.481 101.93C369.679 102.348 370.877 102.765 372.075 103.201L375.669 0.254003C374.453 0.217703 373.255 0.163253 372.039 0.126953L368.481 101.93Z" fill="#AB7D63"/>
<path d="M360.278 178.542C360.877 178.542 361.494 178.523 362.093 178.523V99.7888C361.494 99.5892 360.877 99.3895 360.278 99.208V178.542Z" fill="#AB7D63"/>
<path d="M353.834 178.741C354.433 178.705 355.051 178.705 355.649 178.669L352.8 96.9573C352.183 96.794 351.584 96.6306 350.967 96.4673L353.834 178.741Z" fill="#AB7D63"/>
<path d="M347.428 179.177C348.027 179.122 348.626 179.068 349.243 179.032L343.326 94.4889C342.709 94.3437 342.092 94.1804 341.475 94.0352L347.428 179.177Z" fill="#AB7D63"/>
<path d="M341.021 179.83C341.62 179.758 342.219 179.685 342.818 179.63L333.634 92.2927C333.017 92.1656 332.4 92.0386 331.765 91.9297L341.021 179.83Z" fill="#AB7D63"/>
<path d="M334.65 180.683C335.249 180.592 335.848 180.502 336.447 180.429L323.796 90.4594C323.179 90.3505 322.544 90.2416 321.927 90.1509L334.65 180.683Z" fill="#AB7D63"/>
<path d="M328.315 181.791C328.914 181.682 329.495 181.555 330.094 181.446L313.777 88.9352C313.142 88.8444 312.525 88.7718 311.89 88.6992L328.315 181.791Z" fill="#AB7D63"/>
<path d="M322.018 183.097C322.598 182.97 323.197 182.843 323.796 182.716L303.632 87.8098C302.996 87.7554 302.379 87.7009 301.744 87.6465L322.018 183.097Z" fill="#AB7D63"/>
<path d="M315.773 184.64C316.354 184.477 316.935 184.331 317.534 184.168L293.322 87.0293C292.687 86.993 292.051 86.9567 291.416 86.9204L315.773 184.64Z" fill="#AB7D63"/>
<path d="M309.603 186.4C310.184 186.219 310.765 186.056 311.346 185.874L282.887 86.648C282.251 86.6299 281.616 86.6299 280.999 86.6299L309.603 186.4Z" fill="#AB7D63"/>
<path d="M303.487 188.379C304.067 188.179 304.63 187.998 305.211 187.798L272.341 86.6479C271.706 86.6661 271.071 86.6661 270.436 86.6661L303.487 188.379Z" fill="#AB7D63"/>
<path d="M297.461 190.557C298.023 190.339 298.586 190.121 299.148 189.903L261.705 87.0474C261.07 87.0837 260.453 87.12 259.817 87.1744L297.461 190.557Z" fill="#AB7D63"/>
<path d="M291.49 192.935C292.052 192.699 292.615 192.481 293.178 192.245L250.997 87.8643C250.362 87.9187 249.745 87.9732 249.109 88.0458L291.49 192.935Z" fill="#AB7D63"/>
<path d="M285.645 195.548C286.19 195.294 286.734 195.022 287.297 194.786L240.234 89.1167C239.617 89.2074 238.981 89.2982 238.364 89.3708L285.645 195.548Z" fill="#AB7D63"/>
<path d="M279.874 198.361C280.418 198.089 280.963 197.817 281.489 197.563L229.417 90.8042C228.8 90.9131 228.183 91.022 227.565 91.1491L279.874 198.361Z" fill="#AB7D63"/>
<path d="M274.211 201.356C274.737 201.066 275.263 200.775 275.808 200.485L218.617 92.9282C218 93.0553 217.383 93.1823 216.784 93.3275L274.211 201.356Z" fill="#AB7D63"/>
<path d="M268.656 204.551C269.183 204.242 269.691 203.933 270.217 203.625L207.799 95.5054C207.2 95.6687 206.583 95.8321 205.984 95.9954L268.656 204.551Z" fill="#AB7D63"/>
<path d="M263.23 207.945C263.738 207.618 264.246 207.291 264.754 206.965L197.019 98.5728C196.42 98.7543 195.821 98.9358 195.222 99.1173L263.23 207.945Z" fill="#AB7D63"/>
<path d="M257.912 211.52C258.402 211.175 258.91 210.83 259.4 210.486L186.292 102.094C185.711 102.293 185.112 102.511 184.531 102.711L257.912 211.52Z" fill="#AB7D63"/>
<path d="M252.739 215.277C253.23 214.914 253.72 214.551 254.191 214.206L175.638 106.068C175.058 106.304 174.495 106.54 173.914 106.776L252.739 215.277Z" fill="#AB7D63"/>
<path d="M247.693 219.215C248.165 218.834 248.637 218.453 249.109 218.072L165.093 110.533C164.53 110.787 163.949 111.041 163.387 111.295L247.693 219.215Z" fill="#AB7D63"/>
<path d="M242.775 223.299C243.229 222.9 243.7 222.519 244.154 222.12L154.675 115.47C154.112 115.742 153.549 116.015 153.005 116.305L242.775 223.299Z" fill="#AB7D63"/>
<path d="M238.019 227.583C238.455 227.165 238.909 226.748 239.344 226.349L144.401 120.879C143.857 121.187 143.312 121.478 142.786 121.786L238.019 227.583Z" fill="#AB7D63"/>
<path d="M233.409 231.993C233.845 231.558 234.28 231.14 234.716 230.723L134.292 126.723C133.766 127.05 133.239 127.377 132.713 127.703L233.409 231.993Z" fill="#AB7D63"/>
<path d="M228.963 236.585C229.38 236.15 229.78 235.696 230.197 235.26L124.383 133.076C123.874 133.421 123.348 133.765 122.84 134.11L228.963 236.585Z" fill="#AB7D63"/>
<path d="M224.679 241.304C225.078 240.85 225.477 240.397 225.877 239.943L114.726 139.864C114.236 140.227 113.728 140.59 113.22 140.953L224.679 241.304Z" fill="#AB7D63"/>
<path d="M220.559 246.186C220.94 245.714 221.321 245.242 221.702 244.789L105.288 147.105C104.816 147.487 104.326 147.868 103.854 148.267L220.559 246.186Z" fill="#AB7D63"/>
<path d="M216.62 251.196C216.983 250.706 217.346 250.234 217.728 249.762L96.1226 154.765C95.6688 155.164 95.1969 155.582 94.7432 155.981L216.62 251.196Z" fill="#AB7D63"/>
<path d="M212.845 256.351C213.19 255.86 213.553 255.37 213.898 254.88L87.2654 162.86C86.8298 163.277 86.3942 163.713 85.9404 164.149L212.845 256.351Z" fill="#AB7D63"/>
<path d="M209.252 261.614C209.579 261.106 209.905 260.598 210.25 260.108L78.7353 171.391C78.3179 171.826 77.8823 172.28 77.4648 172.716L209.252 261.614Z" fill="#AB7D63"/>
<path d="M205.84 267.005C206.148 266.497 206.475 265.988 206.802 265.462L70.5315 180.32C70.1322 180.774 69.7147 181.228 69.3154 181.7L205.84 267.005Z" fill="#AB7D63"/>
<path d="M202.645 272.504C202.936 271.978 203.226 271.452 203.535 270.925L62.7089 189.613C62.3277 190.085 61.9466 190.557 61.5654 191.047L202.645 272.504Z" fill="#AB7D63"/>
<path d="M199.614 278.112C199.886 277.568 200.177 277.042 200.467 276.515L55.2671 199.305C54.9041 199.795 54.5411 200.285 54.1963 200.793L199.614 278.112Z" fill="#AB7D63"/>
<path d="M196.801 283.83C197.055 283.285 197.309 282.741 197.581 282.196L48.2248 209.36C47.88 209.869 47.5533 210.377 47.2266 210.885L196.801 283.83Z" fill="#AB7D63"/>
<path d="M194.169 289.637C194.405 289.075 194.659 288.53 194.895 287.968L41.6005 219.724C41.2919 220.25 40.9834 220.776 40.6748 221.303L194.169 289.637Z" fill="#AB7D63"/>
<path d="M191.756 295.518C191.973 294.955 192.209 294.393 192.427 293.83L35.4659 230.414C35.1755 230.94 34.8851 231.485 34.5947 232.029L191.756 295.518Z" fill="#AB7D63"/>
<path d="M189.558 301.49C189.758 300.927 189.958 300.346 190.157 299.784L29.784 241.413C29.5117 241.958 29.2395 242.502 28.9854 243.047L189.558 301.49Z" fill="#AB7D63"/>
<path d="M187.544 307.534C187.726 306.953 187.925 306.39 188.107 305.81L24.6117 252.685C24.3758 253.247 24.1217 253.792 23.8857 254.354L187.544 307.534Z" fill="#AB7D63"/>
<path d="M185.766 313.65C185.929 313.069 186.074 312.488 186.238 311.908L19.9112 264.209C19.6934 264.772 19.4756 265.335 19.2578 265.916L185.766 313.65Z" fill="#AB7D63"/>
<path d="M184.205 319.803C184.35 319.222 184.495 318.623 184.64 318.042L15.7726 275.934C15.5911 276.515 15.3915 277.096 15.21 277.658L184.205 319.803Z" fill="#AB7D63"/>
<path d="M182.844 326.01C182.971 325.411 183.08 324.83 183.207 324.231L12.1067 287.877C11.9433 288.458 11.7981 289.039 11.6348 289.638L182.844 326.01Z" fill="#AB7D63"/>
<path d="M181.7 332.272C181.791 331.673 181.9 331.074 181.991 330.475L9.00322 299.983C8.87617 300.564 8.74912 301.163 8.62207 301.762L181.7 332.272Z" fill="#AB7D63"/>
<path d="M180.774 338.57C180.847 337.971 180.938 337.372 181.029 336.773L6.48002 312.234C6.37112 312.833 6.26222 313.432 6.15332 314.013L180.774 338.57Z" fill="#AB7D63"/>
<path d="M180.085 344.886C180.139 344.287 180.194 343.688 180.248 343.071L4.51973 324.594C4.42898 325.193 4.33823 325.792 4.26562 326.391L180.085 344.886Z" fill="#AB7D63"/>
<path d="M179.594 351.22C179.631 350.621 179.667 350.004 179.703 349.405L3.10378 337.063C3.04933 337.662 2.99488 338.261 2.94043 338.878L179.594 351.22Z" fill="#AB7D63"/>
<path d="M179.323 357.555C179.341 356.956 179.377 356.339 179.395 355.74L2.25131 349.551C2.21501 350.15 2.19686 350.767 2.17871 351.366L179.323 357.555Z" fill="#AB7D63"/>
<path d="M179.25 362.256C179.25 362.201 179.25 362.147 179.25 362.092H1.94238C1.94238 362.147 1.94238 362.201 1.94238 362.256C1.94238 362.8 1.96053 363.363 1.96053 363.907H179.268C179.268 363.363 179.25 362.8 179.25 362.256Z" fill="#AB7D63"/>
<path d="M179.449 370.26C179.431 369.661 179.395 369.044 179.376 368.445L2.23242 374.634C2.25057 375.233 2.26872 375.85 2.30502 376.449L179.449 370.26Z" fill="#AB7D63"/>
<path d="M179.812 376.594C179.758 375.995 179.74 375.378 179.685 374.779L3.08594 387.139C3.14039 387.738 3.19484 388.355 3.24929 388.954L179.812 376.594Z" fill="#AB7D63"/>
<path d="M180.43 382.911C180.357 382.312 180.285 381.713 180.23 381.114L4.46582 399.572C4.53842 400.171 4.62917 400.77 4.71992 401.369L180.43 382.911Z" fill="#AB7D63"/>
<path d="M181.228 389.208C181.138 388.61 181.065 388.011 180.974 387.412L6.42578 411.95C6.53468 412.549 6.66173 413.148 6.77063 413.729L181.228 389.208Z" fill="#AB7D63"/>
<path d="M182.263 395.471C182.154 394.872 182.045 394.273 181.955 393.692L8.93066 424.184C9.05771 424.783 9.22106 425.364 9.34811 425.944L182.263 395.471Z" fill="#AB7D63"/>
<path d="M183.515 401.696C183.388 401.097 183.261 400.516 183.134 399.917L12.0156 436.29C12.179 436.87 12.3242 437.469 12.5057 438.05L183.515 401.696Z" fill="#AB7D63"/>
<path d="M184.967 407.867C184.822 407.286 184.677 406.687 184.532 406.106L15.6279 448.214C15.8094 448.795 15.9909 449.376 16.1906 449.939L184.967 407.867Z" fill="#AB7D63"/>
<path d="M186.655 413.983C186.492 413.402 186.31 412.822 186.147 412.241L19.7842 459.957C20.002 460.52 20.2198 461.101 20.4376 461.663L186.655 413.983Z" fill="#AB7D63"/>
<path d="M188.542 420.046C188.361 419.465 188.161 418.902 187.98 418.321L24.4482 471.464C24.6842 472.027 24.9383 472.572 25.1742 473.134L188.542 420.046Z" fill="#AB7D63"/>
<path d="M190.648 426.035C190.43 425.473 190.23 424.892 190.031 424.329L29.6211 482.718C29.8933 483.262 30.1656 483.807 30.4378 484.351L190.648 426.035Z" fill="#AB7D63"/>
<path d="M192.953 431.952C192.717 431.389 192.5 430.827 192.264 430.264L35.248 493.698C35.5384 494.243 35.847 494.769 36.1374 495.296L192.953 431.952Z" fill="#AB7D63"/>
<path d="M195.457 437.778C195.203 437.233 194.967 436.671 194.731 436.108L41.3818 504.388C41.6904 504.914 42.0171 505.441 42.3256 505.949L195.457 437.778Z" fill="#AB7D63"/>
<path d="M198.18 443.513C197.908 442.969 197.636 442.443 197.382 441.88L47.9707 514.752C48.3156 515.26 48.6423 515.768 48.969 516.277L198.18 443.513Z" fill="#AB7D63"/>
<path d="M201.085 449.158C200.794 448.631 200.522 448.087 200.232 447.561L54.959 524.807C55.322 525.297 55.6668 525.805 56.0298 526.295L201.085 449.158Z" fill="#AB7D63"/>
<path d="M204.188 454.694C203.879 454.167 203.571 453.641 203.28 453.133L62.3818 534.481C62.763 534.953 63.1441 535.443 63.5253 535.915L204.188 454.694Z" fill="#AB7D63"/>
<path d="M207.473 460.121C207.146 459.613 206.837 459.104 206.511 458.578L70.168 543.774C70.5673 544.228 70.9847 544.7 71.384 545.154L207.473 460.121Z" fill="#AB7D63"/>
<path d="M210.94 465.439C210.595 464.93 210.268 464.44 209.924 463.932L78.2998 552.704C78.7173 553.139 79.1529 553.575 79.5885 554.029L210.94 465.439Z" fill="#AB7D63"/>
<path d="M214.606 470.611C214.243 470.121 213.898 469.631 213.535 469.141L86.8115 561.216C87.2471 561.633 87.7009 562.069 88.1546 562.487L214.606 470.611Z" fill="#AB7D63"/>
<path d="M218.435 475.675C218.054 475.203 217.709 474.713 217.328 474.241L95.6504 569.311C96.1041 569.71 96.5579 570.128 97.0298 570.527L218.435 475.675Z" fill="#AB7D63"/>
<path d="M222.447 480.594C222.066 480.14 221.666 479.668 221.267 479.214L104.744 576.988C105.216 577.369 105.706 577.769 106.178 578.15L222.447 480.594Z" fill="#AB7D63"/>
<path d="M226.621 485.386C226.222 484.932 225.822 484.478 225.423 484.024L114.146 584.212C114.636 584.575 115.144 584.938 115.652 585.301L226.621 485.386Z" fill="#AB7D63"/>
<path d="M230.96 490.013C230.542 489.578 230.106 489.142 229.707 488.707L123.766 591.018C124.274 591.363 124.8 591.69 125.327 592.035L230.96 490.013Z" fill="#AB7D63"/>
<path d="M235.46 494.497C235.025 494.079 234.589 493.644 234.153 493.226L133.603 597.334C134.129 597.661 134.655 597.988 135.182 598.314L235.46 494.497Z" fill="#AB7D63"/>
<path d="M240.107 498.835C239.653 498.435 239.217 498.018 238.764 497.619L143.676 603.234C144.22 603.542 144.765 603.851 145.291 604.141L240.107 498.835Z" fill="#AB7D63"/>
<path d="M244.899 502.991C244.427 502.61 243.973 502.21 243.519 501.811L153.895 608.624C154.457 608.896 155.002 609.186 155.564 609.459L244.899 502.991Z" fill="#AB7D63"/>
<path d="M249.817 507.002C249.345 506.621 248.873 506.24 248.401 505.877L164.239 613.597C164.802 613.851 165.383 614.087 165.945 614.341L249.817 507.002Z" fill="#AB7D63"/>
<path d="M254.898 510.832C254.408 510.469 253.918 510.124 253.428 509.761L174.748 618.062C175.329 618.298 175.892 618.534 176.472 618.77L254.898 510.832Z" fill="#AB7D63"/>
<path d="M260.09 514.498C259.582 514.153 259.092 513.808 258.602 513.463L185.33 622.073C185.911 622.291 186.51 622.49 187.091 622.69L260.09 514.498Z" fill="#AB7D63"/>
<path d="M265.426 517.965C264.918 517.638 264.391 517.33 263.883 517.003L196.002 625.649C196.601 625.83 197.2 626.012 197.799 626.193L265.426 517.965Z" fill="#AB7D63"/>
<path d="M270.871 521.25C270.345 520.941 269.836 520.633 269.31 520.324L206.747 628.698C207.346 628.861 207.945 629.025 208.562 629.188L270.871 521.25Z" fill="#AB7D63"/>
<path d="M276.424 524.354C275.898 524.063 275.353 523.791 274.827 523.5L217.491 631.348C218.108 631.475 218.725 631.62 219.324 631.747L276.424 524.354Z" fill="#AB7D63"/>
<path d="M282.088 527.258C281.543 526.985 280.999 526.731 280.472 526.459L228.255 633.526C228.872 633.635 229.489 633.744 230.106 633.852L282.088 527.258Z" fill="#AB7D63"/>
<path d="M287.841 529.961C287.296 529.707 286.734 529.453 286.189 529.199L238.999 635.213C239.616 635.304 240.251 635.395 240.868 635.467L287.841 529.961Z" fill="#AB7D63"/>
<path d="M293.703 532.467C293.141 532.231 292.578 532.013 292.015 531.777L249.689 636.52C250.325 636.575 250.96 636.629 251.577 636.684L293.703 532.467Z" fill="#AB7D63"/>
<path d="M299.638 534.772C299.076 534.572 298.513 534.336 297.95 534.118L260.38 637.355C261.015 637.392 261.632 637.446 262.267 637.482L299.638 534.772Z" fill="#AB7D63"/>
<path d="M305.647 536.859C305.066 536.678 304.485 536.496 303.923 536.296L270.926 637.846C271.561 637.864 272.196 637.864 272.832 637.864L305.647 536.859Z" fill="#AB7D63"/>
<path d="M311.744 538.746C311.163 538.583 310.582 538.401 310.002 538.238L281.434 637.881C282.069 637.881 282.704 637.863 283.321 637.863L311.744 538.746Z" fill="#AB7D63"/>
<path d="M317.879 540.416C317.298 540.271 316.699 540.108 316.118 539.962L291.779 637.573C292.415 637.537 293.05 637.482 293.685 637.446L317.879 540.416Z" fill="#AB7D63"/>
<path d="M324.105 541.85C323.506 541.723 322.925 541.596 322.326 541.469L302.053 636.829C302.688 636.774 303.323 636.72 303.94 636.666L324.105 541.85Z" fill="#AB7D63"/>
<path d="M330.348 543.103C329.749 542.994 329.169 542.867 328.57 542.758L312.162 635.776C312.797 635.704 313.414 635.613 314.05 635.522L330.348 543.103Z" fill="#AB7D63"/>
<path d="M336.647 544.101C336.048 544.01 335.449 543.937 334.85 543.847L322.127 634.324C322.744 634.215 323.379 634.125 323.996 634.016L336.647 544.101Z" fill="#AB7D63"/>
<path d="M342.98 544.899C342.382 544.826 341.783 544.772 341.184 544.699L331.945 632.563C332.562 632.436 333.198 632.309 333.815 632.182L342.98 544.899Z" fill="#AB7D63"/>
<path d="M349.334 545.498C348.735 545.462 348.136 545.407 347.519 545.353L341.565 630.458C342.183 630.313 342.8 630.15 343.417 630.005L349.334 545.498Z" fill="#AB7D63"/>
<path d="M355.704 545.843C355.105 545.825 354.488 545.807 353.889 545.771L351.021 628.026C351.639 627.863 352.256 627.7 352.855 627.536L355.704 545.843Z" fill="#AB7D63"/>
<path d="M362.093 545.988C361.494 545.988 360.877 545.97 360.278 545.97V625.322C360.877 625.122 361.494 624.923 362.093 624.741V545.988Z" fill="#AB7D63"/>
<path d="M368.482 545.916C367.883 545.934 367.266 545.952 366.667 545.952L369.335 622.273C369.934 622.055 370.533 621.855 371.132 621.637L368.482 545.916Z" fill="#AB7D63"/>
<path d="M374.871 545.607C374.272 545.643 373.673 545.698 373.056 545.716L378.174 618.987C378.773 618.752 379.354 618.516 379.953 618.28L374.871 545.607Z" fill="#AB7D63"/>
<path d="M381.241 545.099C380.642 545.153 380.043 545.208 379.426 545.262L386.795 615.448C387.375 615.194 387.956 614.94 388.537 614.686L381.241 545.099Z" fill="#AB7D63"/>
<path d="M387.594 544.354C386.995 544.427 386.396 544.518 385.797 544.59L395.217 611.637C395.798 611.364 396.36 611.11 396.941 610.838L387.594 544.354Z" fill="#AB7D63"/>
<path d="M393.91 543.393C393.311 543.502 392.712 543.593 392.113 543.683L403.384 607.608C403.947 607.317 404.51 607.009 405.072 606.718L393.91 543.393Z" fill="#AB7D63"/>
<path d="M400.208 542.231C399.609 542.358 399.029 542.467 398.43 542.576L411.353 603.361C411.915 603.052 412.46 602.744 413.004 602.435L400.208 542.231Z" fill="#AB7D63"/>
<path d="M406.451 540.815C405.87 540.961 405.271 541.106 404.69 541.251L419.065 598.914C419.61 598.587 420.154 598.278 420.699 597.952L406.451 540.815Z" fill="#AB7D63"/>
<path d="M412.659 539.2C412.078 539.364 411.497 539.509 410.898 539.672L426.544 594.249C427.07 593.904 427.597 593.56 428.123 593.197L412.659 539.2Z" fill="#AB7D63"/>
<path d="M418.794 537.367C418.213 537.548 417.65 537.73 417.069 537.911L433.804 589.421C434.33 589.058 434.838 588.695 435.365 588.35L418.794 537.367Z" fill="#AB7D63"/>
<path d="M424.874 535.316C424.311 535.516 423.731 535.715 423.168 535.915L440.828 584.43C441.336 584.049 441.844 583.686 442.353 583.323L424.874 535.316Z" fill="#AB7D63"/>
<path d="M430.864 533.047C430.301 533.265 429.738 533.483 429.176 533.701L447.598 579.294C448.088 578.912 448.578 578.495 449.086 578.114L430.864 533.047Z" fill="#AB7D63"/>
<path d="M436.78 530.561C436.218 530.796 435.673 531.051 435.11 531.287L454.113 573.975C454.604 573.576 455.075 573.159 455.565 572.759L436.78 530.561Z" fill="#AB7D63"/>
<path d="M442.624 527.893C442.08 528.147 441.535 528.401 440.973 528.655L460.429 568.549C460.901 568.131 461.373 567.714 461.845 567.296L442.624 527.893Z" fill="#AB7D63"/>
<path d="M448.341 525.007C447.815 525.297 447.27 525.569 446.744 525.86L466.51 563.031C466.963 562.596 467.435 562.178 467.889 561.742L448.341 525.007Z" fill="#AB7D63"/>
<path d="M453.986 521.921C453.46 522.23 452.934 522.52 452.407 522.811L472.354 557.368C472.79 556.933 473.225 556.479 473.679 556.025L453.986 521.921Z" fill="#AB7D63"/>
<path d="M459.504 518.636C458.995 518.963 458.469 519.271 457.961 519.598L477.962 551.615C478.398 551.161 478.815 550.689 479.251 550.235L459.504 518.636Z" fill="#AB7D63"/>
<path d="M464.913 515.151C464.404 515.478 463.896 515.823 463.406 516.15L483.353 545.716C483.77 545.244 484.188 544.79 484.587 544.318L464.913 515.151Z" fill="#AB7D63"/>
<path d="M470.194 511.485C469.704 511.83 469.214 512.193 468.724 512.538L488.507 539.763C488.906 539.291 489.324 538.819 489.705 538.329L470.194 511.485Z" fill="#AB7D63"/>
<path d="M475.349 507.637C474.877 508 474.387 508.381 473.915 508.744L493.444 533.755C493.826 533.265 494.225 532.793 494.606 532.303L475.349 507.637Z" fill="#AB7D63"/>
<path d="M480.358 503.626C479.887 504.007 479.433 504.388 478.961 504.769L498.164 527.657C498.545 527.166 498.908 526.658 499.271 526.15L480.358 503.626Z" fill="#AB7D63"/>
<path d="M485.24 499.416C484.786 499.815 484.333 500.214 483.879 500.613L502.664 521.468C503.027 520.96 503.372 520.451 503.735 519.943L485.24 499.416Z" fill="#AB7D63"/>
<path d="M489.977 495.059C489.542 495.477 489.088 495.894 488.652 496.293L506.947 515.242C507.292 514.734 507.637 514.207 507.964 513.681L489.977 495.059Z" fill="#AB7D63"/>
<path d="M494.552 490.521C494.134 490.957 493.717 491.393 493.281 491.828L511.032 508.962C511.359 508.436 511.685 507.909 512.012 507.383L494.552 490.521Z" fill="#AB7D63"/>
<path d="M498.962 485.839C498.562 486.293 498.145 486.729 497.728 487.164L514.897 502.628C515.206 502.102 515.533 501.575 515.841 501.031L498.962 485.839Z" fill="#AB7D63"/>
<path d="M503.209 480.993C502.81 481.447 502.429 481.919 502.029 482.373L518.564 496.239C518.872 495.695 519.163 495.168 519.471 494.624L503.209 480.993Z" fill="#AB7D63"/>
<path d="M507.293 476.002C506.912 476.474 506.531 476.946 506.149 477.418L522.031 489.814C522.321 489.27 522.611 488.725 522.884 488.181L507.293 476.002Z" fill="#AB7D63"/>
<path d="M511.195 470.865C510.832 471.355 510.487 471.845 510.124 472.335L525.297 483.371C525.57 482.826 525.842 482.282 526.114 481.719L511.195 470.865Z" fill="#AB7D63"/>
<path d="M514.934 465.602C514.589 466.11 514.244 466.6 513.899 467.09L528.383 476.873C528.637 476.31 528.891 475.766 529.145 475.203L514.934 465.602Z" fill="#AB7D63"/>
<path d="M518.473 460.211C518.147 460.72 517.838 461.228 517.493 461.736L531.269 470.339C531.505 469.777 531.741 469.214 531.977 468.651L518.473 460.211Z" fill="#AB7D63"/>
<path d="M521.812 454.694C521.504 455.22 521.195 455.728 520.887 456.255L533.955 463.805C534.173 463.242 534.39 462.662 534.626 462.099L521.812 454.694Z" fill="#AB7D63"/>
<path d="M524.971 449.067C524.68 449.594 524.39 450.138 524.1 450.665L536.478 457.253C536.696 456.672 536.877 456.091 537.095 455.529L524.971 449.067Z" fill="#AB7D63"/>
<path d="M527.929 443.313C527.657 443.858 527.403 444.402 527.131 444.947L538.819 450.646C539.019 450.065 539.201 449.484 539.382 448.904L527.929 443.313Z" fill="#AB7D63"/>
<path d="M530.688 437.469C530.434 438.014 530.18 438.576 529.926 439.121L540.943 444.021C541.124 443.441 541.288 442.842 541.469 442.261L530.688 437.469Z" fill="#AB7D63"/>
<path d="M533.23 431.534C532.994 432.097 532.776 432.659 532.54 433.222L542.922 437.415C543.085 436.834 543.231 436.235 543.394 435.654L533.23 431.534Z" fill="#AB7D63"/>
<path d="M535.57 425.508C535.371 426.071 535.135 426.634 534.917 427.196L544.7 430.754C544.845 430.173 544.99 429.574 545.135 428.975L535.57 425.508Z" fill="#AB7D63"/>
<path d="M537.676 419.392C537.494 419.973 537.313 420.554 537.113 421.116L546.315 424.111C546.442 423.512 546.569 422.913 546.696 422.332L537.676 419.392Z" fill="#AB7D63"/>
<path d="M539.582 413.203C539.419 413.784 539.237 414.365 539.056 414.946L547.75 417.432C547.877 416.833 547.967 416.234 548.094 415.635L539.582 413.203Z" fill="#AB7D63"/>
<path d="M541.251 406.959C541.106 407.54 540.961 408.139 540.815 408.72L549.037 410.771C549.146 410.172 549.237 409.573 549.328 408.974L541.251 406.959Z" fill="#AB7D63"/>
<path d="M542.703 400.661C542.576 401.26 542.449 401.841 542.322 402.44L550.127 404.091C550.218 403.493 550.29 402.894 550.381 402.295L542.703 400.661Z" fill="#AB7D63"/>
<path d="M543.956 394.309C543.847 394.908 543.738 395.506 543.629 396.087L551.071 397.394C551.143 396.795 551.198 396.196 551.27 395.597L543.956 394.309Z" fill="#AB7D63"/>
<path d="M544.954 387.902C544.864 388.501 544.791 389.1 544.7 389.699L551.833 390.697C551.888 390.098 551.942 389.499 551.997 388.882L544.954 387.902Z" fill="#AB7D63"/>
<path d="M545.735 381.477C545.68 382.076 545.59 382.674 545.535 383.273L552.432 383.999C552.487 383.4 552.523 382.783 552.559 382.184L545.735 381.477Z" fill="#AB7D63"/>
<path d="M546.297 375.033C546.261 375.632 546.224 376.249 546.17 376.848L552.867 377.32C552.904 376.721 552.922 376.104 552.958 375.505L546.297 375.033Z" fill="#AB7D63"/>
<path d="M546.624 368.572C546.606 369.171 546.588 369.788 546.552 370.387L553.14 370.623C553.158 370.024 553.176 369.407 553.195 368.808L546.624 368.572Z" fill="#AB7D63"/>
<path d="M546.751 362.256C546.751 362.8 546.732 363.363 546.732 363.907H553.285C553.285 363.363 553.303 362.8 553.303 362.256C553.303 362.201 553.303 362.147 553.303 362.092H546.751C546.732 362.147 546.751 362.201 546.751 362.256Z" fill="#AB7D63"/>
<path d="M553.194 355.377L546.605 355.613C546.624 356.212 546.66 356.829 546.678 357.428L553.212 357.192C553.212 356.593 553.212 355.994 553.194 355.377Z" fill="#AB7D63"/>
<path d="M546.279 349.152C546.316 349.751 546.352 350.368 546.388 350.967L553.013 350.495C552.995 349.896 552.977 349.279 552.94 348.68L546.279 349.152Z" fill="#AB7D63"/>
<path d="M545.698 342.69C545.771 343.289 545.825 343.888 545.88 344.487L552.65 343.779C552.613 343.18 552.577 342.563 552.541 341.964L545.698 342.69Z" fill="#AB7D63"/>
<path d="M544.899 336.265C544.99 336.864 545.063 337.463 545.153 338.062L552.123 337.082C552.069 336.483 552.014 335.866 551.96 335.267L544.899 336.265Z" fill="#AB7D63"/>
<path d="M543.901 329.858C544.01 330.457 544.101 331.056 544.192 331.655L551.434 330.384C551.361 329.785 551.307 329.186 551.234 328.569L543.901 329.858Z" fill="#AB7D63"/>
<path d="M542.631 323.506C542.758 324.105 542.903 324.685 543.012 325.284L550.581 323.669C550.49 323.07 550.417 322.471 550.326 321.872L542.631 323.506Z" fill="#AB7D63"/>
<path d="M541.161 317.189C541.306 317.77 541.452 318.369 541.597 318.95L549.565 316.972C549.474 316.373 549.365 315.774 549.274 315.175L541.161 317.189Z" fill="#AB7D63"/>
<path d="M539.473 310.928C539.636 311.509 539.818 312.089 539.981 312.67L548.384 310.256C548.275 309.657 548.167 309.058 548.039 308.459L539.473 310.928Z" fill="#AB7D63"/>
<path d="M537.549 304.738C537.73 305.319 537.93 305.882 538.111 306.462L547.005 303.577C546.878 302.978 546.751 302.379 546.624 301.798L537.549 304.738Z" fill="#AB7D63"/>
<path d="M535.426 298.622C535.644 299.185 535.843 299.766 536.043 300.328L545.481 296.898C545.336 296.299 545.19 295.718 545.045 295.119L535.426 298.622Z" fill="#AB7D63"/>
<path d="M533.065 292.578C533.301 293.141 533.519 293.703 533.755 294.266L543.774 290.219C543.611 289.638 543.465 289.039 543.302 288.458L533.065 292.578Z" fill="#AB7D63"/>
<path d="M530.507 286.625C530.761 287.169 530.997 287.732 531.233 288.295L541.869 283.557C541.687 282.977 541.524 282.378 541.342 281.797L530.507 286.625Z" fill="#AB7D63"/>
<path d="M527.712 280.762C527.984 281.307 528.256 281.833 528.511 282.378L539.782 276.878C539.6 276.297 539.4 275.717 539.219 275.136L527.712 280.762Z" fill="#AB7D63"/>
<path d="M524.735 275.009C525.026 275.535 525.298 276.08 525.588 276.606L537.531 270.254C537.331 269.673 537.132 269.092 536.914 268.529L524.735 275.009Z" fill="#AB7D63"/>
<path d="M521.559 269.364C521.867 269.89 522.176 270.398 522.484 270.925L535.117 263.629C534.899 263.066 534.681 262.485 534.463 261.904L521.559 269.364Z" fill="#AB7D63"/>
<path d="M518.183 263.828C518.509 264.336 518.818 264.845 519.145 265.371L532.485 257.04C532.249 256.477 532.031 255.897 531.795 255.334L518.183 263.828Z" fill="#AB7D63"/>
<path d="M514.607 258.419C514.952 258.91 515.297 259.418 515.624 259.908L529.654 250.452C529.4 249.889 529.164 249.326 528.91 248.764L514.607 258.419Z" fill="#AB7D63"/>
<path d="M510.85 253.138C511.213 253.628 511.557 254.118 511.92 254.608L526.658 243.9C526.386 243.337 526.132 242.793 525.86 242.23L510.85 253.138Z" fill="#AB7D63"/>
<path d="M506.894 248.001C507.275 248.473 507.638 248.945 508.019 249.417L523.428 237.365C523.156 236.821 522.866 236.276 522.575 235.732L506.894 248.001Z" fill="#AB7D63"/>
<path d="M502.773 243.01C503.173 243.464 503.554 243.936 503.953 244.389L520.034 230.886C519.744 230.341 519.435 229.815 519.126 229.271L502.773 243.01Z" fill="#AB7D63"/>
<path d="M498.49 238.146C498.908 238.6 499.307 239.036 499.706 239.489L516.422 224.443C516.114 223.917 515.787 223.39 515.479 222.846L498.49 238.146Z" fill="#AB7D63"/>
<path d="M494.025 233.463C494.443 233.899 494.878 234.335 495.296 234.77L512.593 218.072C512.266 217.546 511.939 217.02 511.613 216.493L494.025 233.463Z" fill="#AB7D63"/>
<path d="M489.415 228.908C489.851 229.325 490.286 229.743 490.722 230.16L508.563 211.683C508.218 211.157 507.892 210.649 507.547 210.123L489.415 228.908Z" fill="#AB7D63"/>
<path d="M484.623 224.552C485.077 224.951 485.531 225.35 485.984 225.75L504.316 205.403C503.953 204.895 503.608 204.387 503.245 203.879L484.623 224.552Z" fill="#AB7D63"/>
<path d="M479.705 220.341C480.177 220.722 480.631 221.121 481.103 221.503L499.852 199.142C499.489 198.634 499.126 198.125 498.744 197.635L479.705 220.341Z" fill="#AB7D63"/>
<path d="M474.641 216.312C475.113 216.675 475.603 217.038 476.074 217.419L495.186 192.953C494.805 192.463 494.424 191.972 494.043 191.482L474.641 216.312Z" fill="#AB7D63"/>
<path d="M469.432 212.464C469.922 212.809 470.412 213.172 470.902 213.535L490.286 186.854C489.887 186.382 489.487 185.91 489.088 185.42L469.432 212.464Z" fill="#AB7D63"/>
<path d="M464.096 208.815C464.604 209.142 465.112 209.469 465.602 209.814L485.15 180.828C484.732 180.356 484.315 179.903 483.916 179.431L464.096 208.815Z" fill="#AB7D63"/>
<path d="M458.633 205.331C459.141 205.64 459.667 205.966 460.176 206.293L479.796 174.894C479.378 174.44 478.943 173.968 478.507 173.514L458.633 205.331Z" fill="#AB7D63"/>
<path d="M453.061 202.064C453.587 202.354 454.113 202.645 454.64 202.953L474.223 169.031C473.788 168.577 473.352 168.124 472.899 167.688L453.061 202.064Z" fill="#AB7D63"/>
<path d="M447.361 198.997C447.906 199.269 448.432 199.559 448.959 199.85L468.397 163.295C467.943 162.86 467.49 162.424 467.036 162.007L447.361 198.997Z" fill="#AB7D63"/>
<path d="M441.572 196.129C442.117 196.383 442.661 196.637 443.206 196.909L462.354 157.651C461.882 157.233 461.41 156.816 460.938 156.398L441.572 196.129Z" fill="#AB7D63"/>
<path d="M435.673 193.461C436.236 193.697 436.78 193.951 437.343 194.187L456.055 152.152C455.583 151.752 455.093 151.335 454.603 150.936L435.673 193.461Z" fill="#AB7D63"/>
<path d="M429.701 190.992C430.264 191.21 430.826 191.446 431.389 191.664L449.539 146.761C449.049 146.362 448.559 145.962 448.069 145.563L429.701 190.992Z" fill="#AB7D63"/>
<path d="M423.64 188.76C424.202 188.96 424.783 189.159 425.346 189.359L442.77 141.497C442.261 141.116 441.753 140.753 441.245 140.372L423.64 188.76Z" fill="#AB7D63"/>
<path d="M417.505 186.727C418.086 186.909 418.648 187.108 419.229 187.29L435.746 136.452C435.237 136.089 434.711 135.726 434.185 135.381L417.505 186.727Z" fill="#AB7D63"/>
<path d="M411.298 184.949C411.879 185.112 412.459 185.257 413.058 185.421L428.504 131.533C427.978 131.188 427.451 130.825 426.925 130.48L411.298 184.949Z" fill="#AB7D63"/>
<path d="M405.035 183.352C405.634 183.497 406.215 183.642 406.796 183.787L421.007 126.778C420.463 126.451 419.918 126.125 419.374 125.798L405.035 183.352Z" fill="#AB7D63"/>
<path d="M398.737 181.99C399.336 182.099 399.935 182.226 400.516 182.335L413.294 122.222C412.749 121.913 412.186 121.605 411.642 121.296L398.737 181.99Z" fill="#AB7D63"/>
<path d="M392.385 180.865C392.984 180.956 393.583 181.065 394.182 181.155L405.326 117.903C404.763 117.612 404.2 117.304 403.638 117.013L392.385 180.865Z" fill="#AB7D63"/>
<path d="M385.996 179.939C386.595 180.011 387.194 180.102 387.793 180.175L397.122 113.764C396.559 113.492 395.979 113.238 395.398 112.965L385.996 179.939Z" fill="#AB7D63"/>
<path d="M379.59 179.268C380.189 179.322 380.788 179.377 381.405 179.431L388.719 109.917C388.138 109.663 387.558 109.408 386.977 109.154L379.59 179.268Z" fill="#AB7D63"/>
<path d="M373.164 178.795C373.763 178.832 374.38 178.868 374.979 178.904L380.061 106.25C379.462 106.014 378.881 105.778 378.282 105.542L373.164 178.795Z" fill="#AB7D63"/>
<path d="M366.721 178.56C367.32 178.578 367.937 178.578 368.536 178.596L371.186 102.874C370.587 102.656 369.988 102.457 369.389 102.239L366.721 178.56Z" fill="#AB7D63"/>
</svg>
